<mxfile host="app.diagrams.net" modified="2025-02-17T06:00:51.358Z" agent="Mozilla/5.0 (Windows NT 10.0; Win64; x64) AppleWebKit/537.36 (KHTML, like Gecko) Chrome/133.0.0.0 Safari/537.36" etag="dzDnLkhfhGKlrmnj-72p" version="24.5.4" type="github">
  <diagram name="Page-1" id="1ADRWgkrkfq6aO-vBri9">
    <mxGraphModel dx="680" dy="333" grid="1" gridSize="10" guides="1" tooltips="1" connect="1" arrows="1" fold="1" page="1" pageScale="1" pageWidth="827" pageHeight="1169" math="0" shadow="0">
      <root>
        <mxCell id="0" />
        <mxCell id="1" parent="0" />
        <mxCell id="sNELl4XUqD25lpaPhX1n-1" value="&lt;div&gt;&lt;br&gt;&lt;/div&gt;" style="rounded=0;whiteSpace=wrap;html=1;fontFamily=Times New Roman;" parent="1" vertex="1">
          <mxGeometry y="60" width="770" height="1100" as="geometry" />
        </mxCell>
        <mxCell id="nsSqhKqNjLwVX59CUtU6-5" value="" style="edgeStyle=orthogonalEdgeStyle;rounded=0;orthogonalLoop=1;jettySize=auto;html=1;" edge="1" parent="1" source="sNELl4XUqD25lpaPhX1n-2" target="nsSqhKqNjLwVX59CUtU6-4">
          <mxGeometry relative="1" as="geometry" />
        </mxCell>
        <mxCell id="sNELl4XUqD25lpaPhX1n-2" value="Fetch Data from Integrator Config&amp;nbsp;&lt;br&gt;ProcessorID : 1" style="rounded=1;whiteSpace=wrap;html=1;fontFamily=Times New Roman;" parent="1" vertex="1">
          <mxGeometry x="354" y="90" width="120" height="60" as="geometry" />
        </mxCell>
        <mxCell id="nsSqhKqNjLwVX59CUtU6-3" value="Processor : 1&lt;br&gt;Fixed in App Config&lt;div&gt;&lt;br style=&quot;font-family: &amp;quot;Times New Roman&amp;quot;;&quot;&gt;&lt;/div&gt;" style="rounded=0;whiteSpace=wrap;html=1;" vertex="1" parent="1">
          <mxGeometry x="580" y="90" width="180" height="60" as="geometry" />
        </mxCell>
        <mxCell id="nsSqhKqNjLwVX59CUtU6-9" value="" style="edgeStyle=orthogonalEdgeStyle;rounded=0;orthogonalLoop=1;jettySize=auto;html=1;" edge="1" parent="1" source="nsSqhKqNjLwVX59CUtU6-4" target="nsSqhKqNjLwVX59CUtU6-8">
          <mxGeometry relative="1" as="geometry" />
        </mxCell>
        <mxCell id="nsSqhKqNjLwVX59CUtU6-4" value="Fetch Number of Unique Partition&lt;div style=&quot;&quot;&gt;&lt;span style=&quot;font-size: 7px;&quot;&gt;Distinct Partition Id | Received array :[1,2]&lt;/span&gt;&lt;/div&gt;" style="rounded=1;whiteSpace=wrap;html=1;" vertex="1" parent="1">
          <mxGeometry x="354" y="170" width="120" height="60" as="geometry" />
        </mxCell>
        <mxCell id="nsSqhKqNjLwVX59CUtU6-8" value="&lt;font style=&quot;font-size: 9px;&quot;&gt;Length(Array Partition ID)&amp;nbsp;&lt;/font&gt;" style="rounded=1;whiteSpace=wrap;html=1;" vertex="1" parent="1">
          <mxGeometry x="354" y="250" width="120" height="60" as="geometry" />
        </mxCell>
        <mxCell id="nsSqhKqNjLwVX59CUtU6-11" value="" style="edgeStyle=orthogonalEdgeStyle;rounded=0;orthogonalLoop=1;jettySize=auto;html=1;" edge="1" parent="1" source="nsSqhKqNjLwVX59CUtU6-10" target="nsSqhKqNjLwVX59CUtU6-8">
          <mxGeometry relative="1" as="geometry" />
        </mxCell>
        <mxCell id="nsSqhKqNjLwVX59CUtU6-10" value="&lt;font style=&quot;font-size: 8px;&quot;&gt;Var Total Request Holder&lt;br&gt;= 0&lt;/font&gt;" style="shape=parallelogram;perimeter=parallelogramPerimeter;whiteSpace=wrap;html=1;fixedSize=1;" vertex="1" parent="1">
          <mxGeometry x="200" y="250" width="120" height="60" as="geometry" />
        </mxCell>
      </root>
    </mxGraphModel>
  </diagram>
</mxfile>
